<svg xmlns="http://www.w3.org/2000/svg" width="512" height="512" viewBox="0 0 512 512" data-svgdocument="" id="_eh55j3m3i_1" class="fl-svgdocument" x="0" y="0" style="overflow: hidden;"><path id="_eh55j3m3i_18" d="M88.307,0.013C39.536,0.013,0,39.549,0,88.32c0,48.77,39.536,88.307,88.307,88.307  c48.77,0,88.307-39.537,88.307-88.307C176.613,39.549,137.076,0.013,88.307,0.013z M88.307,163.341  c-41.433,0-75.021-33.589-75.021-75.021c0-41.433,33.587-75.021,75.021-75.021c41.432,0,75.021,33.587,75.021,75.021  C163.327,129.752,129.738,163.341,88.307,163.341z" stroke="none" fill="#00bc8c" transform="matrix(2.1893515586853027, 0, 0, 2.1892576217651367, 62.66492414474487, 62.676974781486024)"></path><g id="_eh55j3m3i_61" transform="matrix(2.5929880142211914, 0, 0, 2.5929880142211914, 191.17529964447021, 178.4709546820921)" fill="#00bc8c"><svg id="_eh55j3m3i_62" xmlns="http://www.w3.org/2000/svg" xmlns:xlink="http://www.w3.org/1999/xlink" xmlns:sketch="http://www.bohemiancoding.com/sketch/ns" viewBox="0 0 50 59" version="1.1" x="0px" y="0px" width="50" height="59"><title id="_eh55j3m3i_63"></title><desc id="_eh55j3m3i_64"></desc><g id="_eh55j3m3i_65" stroke="none" stroke-width="1" fill-rule="evenodd" fill="#00bc8c"><g id="_eh55j3m3i_66" fill="#00bc8c"><path id="_eh55j3m3i_67" d="M27.606,33.869 C26.737,33.896 25.867,33.91 25,33.91 C24.131,33.91 23.258,33.896 22.386,33.869 C15.045,33.668 9.195,32.631 4.983,31.152 C3.004,30.485 1.309,29.698 0,28.799 L0,38.199 C2.846,41.17 12.394,43.911 25,43.911 C37.606,43.911 47.154,41.17 50,38.199 L50,28.799 C48.682,29.705 46.972,30.496 44.975,31.167 C40.765,32.638 34.927,33.669 27.606,33.869" fill="#00bc8c"></path><path id="_eh55j3m3i_68" d="M0,15.688 L0,25.088 C2.638,27.842 11.033,30.397 22.286,30.756 C22.402,30.76 22.52,30.762 22.636,30.765 C22.961,30.774 23.287,30.783 23.617,30.788 C24.074,30.795 24.535,30.799 25,30.799 C25.465,30.799 25.926,30.795 26.383,30.788 C26.713,30.783 27.039,30.774 27.364,30.765 C27.48,30.762 27.598,30.76 27.714,30.756 C38.967,30.397 47.362,27.842 50,25.088 L50,15.688 C45.133,19.032 34.844,20.799 25,20.799 C15.156,20.799 4.867,19.032 0,15.688" fill="#00bc8c"></path><path id="_eh55j3m3i_69" d="M49.865,9.341 C48.743,5.04 40.115,0.799 25,0.799 C9.923,0.799 1.304,5.019 0.146,9.309 C0.062,9.456 0,9.617 0,9.799 L0,12.105 C2.836,15.066 12.316,17.799 25,17.799 C37.684,17.799 47.164,15.066 50,12.105 L50,9.799 C50,9.631 49.944,9.48 49.865,9.341" fill="#00bc8c"></path><path id="_eh55j3m3i_70" d="M0,41.799 L0,50 C0,50.162 0.043,50.315 0.117,50.451 C1.298,55.346 11.864,59 25,59 C38.106,59 48.655,55.361 49.875,50.484 C49.955,50.341 50,50.176 50,50 L50,41.801 C45.865,44.711 37.345,47 25,47 C12.654,47 4.134,44.71 0,41.799" fill="#00bc8c"></path></g></g></svg></g><g id="_eh55j3m3i_87" transform="matrix(2.5077784061431885, 0, 0, 2.5077784061431885, 198.55723524093628, 242.68308592650556)" fill="#00bc8c"><svg id="_eh55j3m3i_88" xmlns="http://www.w3.org/2000/svg" xmlns:xlink="http://www.w3.org/1999/xlink" version="1.1" x="0px" y="0px" viewBox="-590.364 -65.965 100 99.942" enable-background="new -590.364 -65.965 100 99.942" width="100" height="99.942"><path id="_eh55j3m3i_89" d="M-490.364-57.865c0-2.739-0.16-5.441-0.461-8.1c-4.012,28.171-34,55.093-70.45,55.22v-15.628l-29.088,30.175l29.088,30.175  V18.343C-522.088,18.181-490.364-18.646-490.364-57.865z" fill="#00bc8c"></path></svg></g><g id="_eh55j3m3i_96" transform="matrix(-2.5077781677246094, -0.0012878418201580644, 0.0012878418201580644, -2.5077781677246094, 313.44274854660034, 269.4456744274821)" fill="#00bc8c"><svg id="_eh55j3m3i_97" xmlns="http://www.w3.org/2000/svg" xmlns:xlink="http://www.w3.org/1999/xlink" version="1.1" x="0px" y="0px" viewBox="-590.364 -65.965 100 99.942" enable-background="new -590.364 -65.965 100 99.942" width="100" height="99.942"><path id="_eh55j3m3i_98" d="M-490.364-57.865c0-2.739-0.16-5.441-0.461-8.1c-4.012,28.171-34,55.093-70.45,55.22v-15.628l-29.088,30.175l29.088,30.175  V18.343C-522.088,18.181-490.364-18.646-490.364-57.865z" fill="#00bc8c"></path></svg></g></svg>