<svg xmlns="http://www.w3.org/2000/svg" width="512" height="512" viewBox="0 0 512 512" data-svgdocument=""
	id="_eh55j3m3i_1" class="fl-svgdocument" x="0" y="0" style="overflow: hidden;">
	<path id="_eh55j3m3i_18"
		d="M88.307,0.013C39.536,0.013,0,39.549,0,88.32c0,48.77,39.536,88.307,88.307,88.307  c48.77,0,88.307-39.537,88.307-88.307C176.613,39.549,137.076,0.013,88.307,0.013z M88.307,163.341  c-41.433,0-75.021-33.589-75.021-75.021c0-41.433,33.587-75.021,75.021-75.021c41.432,0,75.021,33.587,75.021,75.021  C163.327,129.752,129.738,163.341,88.307,163.341z"
		stroke="none" fill="#00bc8c"
		transform="matrix(2.1893515586853027, 0, 0, 2.1892576217651367, 62.66492414474487, 62.676974781486024)"></path>
	<g id="_eh55j3m3i_87"
		transform="matrix(2.5077784061431885, 0, 0, 2.5077784061431885, 198.55723524093628, 242.68308592650556)"
		fill="#00bc8c"><svg id="_eh55j3m3i_88" xmlns="http://www.w3.org/2000/svg"
			xmlns:xlink="http://www.w3.org/1999/xlink" version="1.1" x="0px" y="0px"
			viewBox="-590.364 -65.965 100 99.942" enable-background="new -590.364 -65.965 100 99.942" width="100"
			height="99.942">
			<path id="_eh55j3m3i_89"
				d="M-490.364-57.865c0-2.739-0.16-5.441-0.461-8.1c-4.012,28.171-34,55.093-70.45,55.22v-15.628l-29.088,30.175l29.088,30.175  V18.343C-522.088,18.181-490.364-18.646-490.364-57.865z"
				fill="#00bc8c"></path>
		</svg></g>
	<g id="_eh55j3m3i_96"
		transform="matrix(-2.5077781677246094, -0.0012878418201580644, 0.0012878418201580644, -2.5077781677246094, 313.44274854660034, 269.4456744274821)"
		fill="#00bc8c"><svg id="_eh55j3m3i_97" xmlns="http://www.w3.org/2000/svg"
			xmlns:xlink="http://www.w3.org/1999/xlink" version="1.1" x="0px" y="0px"
			viewBox="-590.364 -65.965 100 99.942" enable-background="new -590.364 -65.965 100 99.942" width="100"
			height="99.942">
			<path id="_eh55j3m3i_98"
				d="M-490.364-57.865c0-2.739-0.16-5.441-0.461-8.1c-4.012,28.171-34,55.093-70.45,55.22v-15.628l-29.088,30.175l29.088,30.175  V18.343C-522.088,18.181-490.364-18.646-490.364-57.865z"
				fill="#00bc8c"></path>
		</svg></g>
</svg>